<svg
    xmlns="http://www.w3.org/2000/svg"
    viewBox="0 0 800 1000"
    id="vector">
    <path
        id="path_14"
        d="M 740.8 635.42 C 672.53 725.89 491.03 837.18 424.8 876.05 C 417.255 880.482 408.691 882.887 399.942 883.028 C 391.193 883.17 382.554 881.045 374.87 876.86 C 310.68 841.86 140.78 742.98 59.22 634.86 C 57.328 632.343 56.295 629.283 56.273 626.135 C 56.252 622.986 57.243 619.913 59.1 617.37 C 136.68 511.08 218.77 358.48 400.16 358.48 C 582.16 358.48 642.35 497.56 740.43 617.36 C 742.505 619.893 743.671 623.052 743.738 626.326 C 743.805 629.6 742.77 632.804 740.8 635.42 Z"
        fill="#eeeeee"
        fill-opacity="0.5"
        stroke-opacity="0.5"/>
    <path
        id="path_15"
        d="M 704.9 630 L 410.61 821.06 L 410.61 480.21 L 704.9 289.15 L 704.9 630 Z"
        fill="#bdbdbd"/>
    <path
        id="path_16"
        d="M 97.59 630 L 391.88 821.06 L 391.88 480.21 L 97.59 289.15 L 97.59 630 Z"
        fill="#e0e0e0"/>
    <path
        id="path_17"
        d="M 400.14 464.73 L 106.95 273.28 L 400.14 116.97 L 695.53 273.28 L 400.14 464.73 Z"
        fill="#f5f5f5"/>
    <path
        id="path_18"
        d="M 106.95 273.28 L 97.59 289.15 L 391.88 480.21 L 400.14 464.73 L 106.95 273.28 Z"
        fill="#eeeeee"/>
    <path
        id="path_19"
        d="M 695.53 273.28 L 704.9 289.15 L 410.61 480.21 L 400.14 464.73 L 695.53 273.28 Z"
        fill="#e0e0e0"/>
    <path
        id="path_20"
        d="M 391.88 480.21 L 410.61 480.21 L 410.61 821.06 L 391.88 821.06 Z"
        fill="#eeeeee"/>
    <path
        id="path_21"
        d="M 400.14 464.73 L 391.88 480.21 L 410.61 480.21 L 400.14 464.73 Z"
        fill="#f5f5f5"/>
    <path
        id="path_22"
        d="M 397.05 297.63 C 403.111 298.43 409.184 298.072 414.379 296.608 C 419.574 295.144 423.624 292.65 425.935 289.49 C 428.247 286.331 428.701 282.668 427.231 279.04 C 425.762 275.411 422.444 272.003 417.764 269.314 C 413.085 266.626 407.283 264.795 401.21 264.09 C 395.149 263.29 389.076 263.648 383.881 265.112 C 378.686 266.576 374.636 269.07 372.325 272.23 C 370.013 275.389 369.559 279.052 371.029 282.68 C 372.498 286.309 375.816 289.717 380.496 292.406 C 385.175 295.094 390.977 296.925 397.05 297.63 Z"
        fill="#78c257"/>
    <path
        id="path_23"
        d="M 547.21 304.45 C 553.271 305.25 559.344 304.892 564.539 303.428 C 569.734 301.964 573.784 299.47 576.095 296.31 C 578.407 293.151 578.861 289.488 577.391 285.86 C 575.922 282.231 572.604 278.823 567.924 276.134 C 563.245 273.446 557.443 271.615 551.37 270.91 C 545.309 270.11 539.236 270.468 534.041 271.932 C 528.846 273.396 524.796 275.89 522.485 279.05 C 520.173 282.209 519.719 285.872 521.189 289.5 C 522.658 293.129 525.976 296.537 530.656 299.226 C 535.335 301.914 541.137 303.745 547.21 304.45 Z"
        fill="#78c257"/>
    <path
        id="path_24"
        d="M 388.17 207.62 C 394.231 208.42 400.304 208.062 405.499 206.598 C 410.694 205.134 414.744 202.64 417.055 199.48 C 419.367 196.321 419.821 192.658 418.351 189.03 C 416.882 185.401 413.564 181.993 408.884 179.304 C 404.205 176.616 398.403 174.785 392.33 174.08 C 386.269 173.28 380.196 173.638 375.001 175.102 C 369.806 176.566 365.756 179.06 363.445 182.22 C 361.133 185.379 360.679 189.042 362.149 192.67 C 363.618 196.299 366.936 199.707 371.616 202.396 C 376.295 205.084 382.097 206.915 388.17 207.62 Z"
        fill="#78c257"/>
    <path
        id="path_25"
        d="M 405.93 387.62 C 411.991 388.42 418.064 388.062 423.259 386.598 C 428.454 385.134 432.504 382.64 434.815 379.48 C 437.127 376.321 437.581 372.658 436.111 369.03 C 434.642 365.401 431.324 361.993 426.644 359.304 C 421.965 356.616 416.163 354.785 410.09 354.08 C 404.029 353.28 397.956 353.638 392.761 355.102 C 387.566 356.566 383.516 359.06 381.205 362.22 C 378.893 365.379 378.439 369.042 379.909 372.67 C 381.378 376.299 384.696 379.707 389.376 382.396 C 394.055 385.084 399.857 386.915 405.93 387.62 Z"
        fill="#78c257"/>
    <path
        id="path_26"
        d="M 246.89 290.79 C 252.951 291.59 259.024 291.232 264.219 289.768 C 269.414 288.304 273.464 285.81 275.775 282.65 C 278.087 279.491 278.541 275.828 277.071 272.2 C 275.602 268.571 272.284 265.163 267.604 262.474 C 262.925 259.786 257.123 257.955 251.05 257.25 C 244.989 256.45 238.916 256.808 233.721 258.272 C 228.526 259.736 224.476 262.23 222.165 265.39 C 219.853 268.549 219.399 272.212 220.869 275.84 C 222.338 279.469 225.656 282.877 230.336 285.566 C 235.015 288.254 240.817 290.085 246.89 290.79 Z"
        fill="#78c257"/>
    <path
        id="path_27"
        d="M 229.56 563.64 C 233.313 568.791 237.849 573.177 242.51 576.165 C 247.171 579.153 251.721 580.591 255.502 580.271 C 259.284 579.95 262.104 577.888 263.556 574.382 C 265.007 570.876 265.016 566.104 263.581 560.757 C 262.147 555.409 259.341 549.758 255.57 544.62 C 251.817 539.469 247.281 535.083 242.62 532.095 C 237.959 529.107 233.409 527.669 229.628 527.989 C 225.846 528.31 223.026 530.372 221.574 533.878 C 220.123 537.384 220.114 542.156 221.549 547.503 C 222.983 552.851 225.789 558.502 229.56 563.64 Z"
        fill="#78c257"/>
    <path
        id="path_29"
        d="M 551.15 579.45 C 553.873 581.529 557.743 581.914 562.192 580.547 C 566.642 579.18 571.445 576.131 575.899 571.847 C 580.352 567.563 584.229 562.263 586.962 556.72 C 589.696 551.178 591.146 545.677 591.1 541.022 C 591.055 536.367 589.516 532.796 586.71 530.83 C 583.987 528.751 580.117 528.366 575.668 529.733 C 571.218 531.1 566.415 534.149 561.961 538.433 C 557.508 542.717 553.631 548.017 550.898 553.56 C 548.164 559.102 546.714 564.603 546.76 569.258 C 546.805 573.913 548.344 577.484 551.15 579.45 Z"
        fill="#78c257"/>
    <path
        id="path_30"
        d="M 469.12 549.58 C 471.843 551.659 475.713 552.044 480.162 550.677 C 484.612 549.31 489.415 546.261 493.869 541.977 C 498.322 537.693 502.199 532.393 504.932 526.85 C 507.666 521.308 509.116 515.807 509.07 511.152 C 509.025 506.497 507.486 502.926 504.68 500.96 C 501.957 498.881 498.087 498.496 493.638 499.863 C 489.188 501.23 484.385 504.279 479.931 508.563 C 475.478 512.847 471.601 518.147 468.868 523.69 C 466.134 529.232 464.684 534.733 464.73 539.388 C 464.775 544.043 466.314 547.614 469.12 549.58 Z"
        fill="#78c257"/>
    <path
        id="path_31"
        d="M 633.17 609.29 C 635.893 611.369 639.763 611.754 644.212 610.387 C 648.662 609.02 653.465 605.971 657.919 601.687 C 662.372 597.403 666.249 592.103 668.982 586.56 C 671.716 581.018 673.166 575.517 673.12 570.862 C 673.075 566.207 671.536 562.636 668.73 560.67 C 666.007 558.591 662.137 558.206 657.688 559.573 C 653.238 560.94 648.435 563.989 643.981 568.273 C 639.528 572.557 635.651 577.857 632.918 583.4 C 630.184 588.942 628.734 594.443 628.78 599.098 C 628.825 603.753 630.364 607.324 633.17 609.29 Z"
        fill="#78c257"/>
</svg>
