<svg
    xmlns="http://www.w3.org/2000/svg"
    viewBox="0 0 800 1000"
    id="vector">
    <path
        id="path"
        d="M 740.8 635.42 C 672.53 725.89 491.03 837.18 424.8 876.05 C 417.255 880.482 408.691 882.887 399.942 883.028 C 391.193 883.17 382.554 881.045 374.87 876.86 C 310.68 841.86 140.78 742.98 59.22 634.86 C 57.328 632.343 56.295 629.283 56.273 626.135 C 56.252 622.986 57.243 619.913 59.1 617.37 C 136.68 511.08 218.77 358.48 400.16 358.48 C 582.16 358.48 642.35 497.56 740.43 617.36 C 742.505 619.893 743.671 623.052 743.738 626.326 C 743.805 629.6 742.77 632.804 740.8 635.42 Z"
        fill="#eeeeee"
        fill-opacity="0.5"
        stroke-opacity="0.5"/>
    <path
        id="path_1"
        d="M 704.9 630 L 410.61 821.06 L 410.61 480.21 L 704.9 289.15 L 704.9 630 Z"
        fill="#bdbdbd"/>
    <path
        id="path_2"
        d="M 97.59 630 L 391.88 821.06 L 391.88 480.21 L 97.59 289.15 L 97.59 630 Z"
        fill="#e0e0e0"/>
    <path
        id="path_3"
        d="M 400.14 464.73 L 106.95 273.28 L 400.14 116.97 L 695.53 273.28 L 400.14 464.73 Z"
        fill="#f5f5f5"/>
    <path
        id="path_4"
        d="M 106.95 273.28 L 97.59 289.15 L 391.88 480.21 L 400.14 464.73 L 106.95 273.28 Z"
        fill="#eeeeee"/>
    <path
        id="path_5"
        d="M 695.53 273.28 L 704.9 289.15 L 410.61 480.21 L 400.14 464.73 L 695.53 273.28 Z"
        fill="#e0e0e0"/>
    <path
        id="path_6"
        d="M 391.88 480.21 L 410.61 480.21 L 410.61 821.06 L 391.88 821.06 Z"
        fill="#eeeeee"/>
    <path
        id="path_7"
        d="M 400.14 464.73 L 391.88 480.21 L 410.61 480.21 L 400.14 464.73 Z"
        fill="#f5f5f5"/>
    <path
        id="path_8"
        d="M 397.45 297.62 C 403.511 298.42 409.584 298.062 414.779 296.598 C 419.974 295.134 424.024 292.64 426.335 289.48 C 428.647 286.321 429.101 282.658 427.631 279.03 C 426.162 275.401 422.844 271.993 418.164 269.304 C 413.485 266.616 407.683 264.785 401.61 264.08 C 395.549 263.28 389.476 263.638 384.281 265.102 C 379.086 266.566 375.036 269.06 372.725 272.22 C 370.413 275.379 369.959 279.042 371.429 282.67 C 372.898 286.299 376.216 289.707 380.896 292.396 C 385.575 295.084 391.377 296.915 397.45 297.62 Z"
        fill="#78c257"/>
    <path
        id="path_9"
        d="M 297.17 539.02 C 300.923 544.171 305.459 548.557 310.12 551.545 C 314.781 554.533 319.331 555.971 323.112 555.651 C 326.894 555.33 329.714 553.268 331.166 549.762 C 332.617 546.256 332.626 541.484 331.191 536.137 C 329.757 530.789 326.951 525.138 323.18 520 C 319.427 514.849 314.891 510.463 310.23 507.475 C 305.569 504.487 301.019 503.049 297.238 503.369 C 293.456 503.69 290.636 505.752 289.184 509.258 C 287.733 512.764 287.724 517.536 289.159 522.883 C 290.593 528.231 293.399 533.882 297.17 539.02 Z"
        fill="#78c257"/>
    <path
        id="path_10"
        d="M 161.96 588.24 C 165.713 593.391 170.249 597.777 174.91 600.765 C 179.571 603.753 184.121 605.191 187.902 604.871 C 191.684 604.55 194.504 602.488 195.956 598.982 C 197.407 595.476 197.416 590.704 195.981 585.357 C 194.547 580.009 191.741 574.358 187.97 569.22 C 184.217 564.069 179.681 559.683 175.02 556.695 C 170.359 553.707 165.809 552.269 162.028 552.589 C 158.246 552.91 155.426 554.972 153.974 558.478 C 152.523 561.984 152.514 566.756 153.949 572.103 C 155.383 577.451 158.189 583.102 161.96 588.24 Z"
        fill="#78c257"/>
    <path
        id="path_11"
        d="M 551.15 579.45 C 553.873 581.529 557.743 581.914 562.192 580.547 C 566.642 579.18 571.445 576.131 575.899 571.847 C 580.352 567.563 584.229 562.263 586.962 556.72 C 589.696 551.178 591.146 545.677 591.1 541.022 C 591.055 536.367 589.516 532.796 586.71 530.83 C 583.987 528.751 580.117 528.366 575.668 529.733 C 571.218 531.1 566.415 534.149 561.961 538.433 C 557.508 542.717 553.631 548.017 550.898 553.56 C 548.164 559.102 546.714 564.603 546.76 569.258 C 546.805 573.913 548.344 577.484 551.15 579.45 Z"
        fill="#78c257"/>
    <path
        id="path_12"
        d="M 469.12 549.58 C 471.843 551.659 475.713 552.044 480.162 550.677 C 484.612 549.31 489.415 546.261 493.869 541.977 C 498.322 537.693 502.199 532.393 504.932 526.85 C 507.666 521.308 509.116 515.807 509.07 511.152 C 509.025 506.497 507.486 502.926 504.68 500.96 C 501.957 498.881 498.087 498.496 493.638 499.863 C 489.188 501.23 484.385 504.279 479.931 508.563 C 475.478 512.847 471.601 518.147 468.868 523.69 C 466.134 529.232 464.684 534.733 464.73 539.388 C 464.775 544.043 466.314 547.614 469.12 549.58 Z"
        fill="#78c257"/>
    <path
        id="path_13"
        d="M 633.17 609.29 C 635.893 611.369 639.763 611.754 644.212 610.387 C 648.662 609.02 653.465 605.971 657.919 601.687 C 662.372 597.403 666.249 592.103 668.982 586.56 C 671.716 581.018 673.166 575.517 673.12 570.862 C 673.075 566.207 671.536 562.636 668.73 560.67 C 666.007 558.591 662.137 558.206 657.688 559.573 C 653.238 560.94 648.435 563.989 643.981 568.273 C 639.528 572.557 635.651 577.857 632.918 583.4 C 630.184 588.942 628.734 594.443 628.78 599.098 C 628.825 603.753 630.364 607.324 633.17 609.29 Z"
        fill="#78c257"/>
</svg>
