<svg
    xmlns="http://www.w3.org/2000/svg"
    viewBox="0 0 800 1000"
    id="vector">
    <path
        id="path_14"
        d="M 740.8 635.42 C 672.53 725.89 491.03 837.18 424.8 876.05 C 417.255 880.482 408.691 882.887 399.942 883.028 C 391.193 883.17 382.554 881.045 374.87 876.86 C 310.68 841.86 140.78 742.98 59.22 634.86 C 57.328 632.343 56.295 629.283 56.273 626.135 C 56.252 622.986 57.243 619.913 59.1 617.37 C 136.68 511.08 218.77 358.48 400.16 358.48 C 582.16 358.48 642.35 497.56 740.43 617.36 C 742.505 619.893 743.671 623.052 743.738 626.326 C 743.805 629.6 742.77 632.804 740.8 635.42 Z"
        fill="#eeeeee"
        fill-opacity="0.5"
        stroke-opacity="0.5"/>
    <path
        id="path_15"
        d="M 704.9 630 L 410.61 821.06 L 410.61 480.21 L 704.9 289.15 L 704.9 630 Z"
        fill="#bdbdbd"/>
    <path
        id="path_16"
        d="M 97.59 630 L 391.88 821.06 L 391.88 480.21 L 97.59 289.15 L 97.59 630 Z"
        fill="#e0e0e0"/>
    <path
        id="path_17"
        d="M 400.14 464.73 L 106.95 273.28 L 400.14 116.97 L 695.53 273.28 L 400.14 464.73 Z"
        fill="#f5f5f5"/>
    <path
        id="path_18"
        d="M 106.95 273.28 L 97.59 289.15 L 391.88 480.21 L 400.14 464.73 L 106.95 273.28 Z"
        fill="#eeeeee"/>
    <path
        id="path_19"
        d="M 695.53 273.28 L 704.9 289.15 L 410.61 480.21 L 400.14 464.73 L 695.53 273.28 Z"
        fill="#e0e0e0"/>
    <path
        id="path_20"
        d="M 391.88 480.21 L 410.61 480.21 L 410.61 821.06 L 391.88 821.06 Z"
        fill="#eeeeee"/>
    <path
        id="path_21"
        d="M 400.14 464.73 L 391.88 480.21 L 410.61 480.21 L 400.14 464.73 Z"
        fill="#f5f5f5"/>
    <path
        id="path_22"
        d="M 398.11 297.62 C 404.171 298.42 410.244 298.062 415.439 296.598 C 420.634 295.134 424.684 292.64 426.995 289.48 C 429.307 286.321 429.761 282.658 428.291 279.03 C 426.822 275.401 423.504 271.993 418.824 269.304 C 414.145 266.616 408.343 264.785 402.27 264.08 C 396.209 263.28 390.136 263.638 384.941 265.102 C 379.746 266.566 375.696 269.06 373.385 272.22 C 371.073 275.379 370.619 279.042 372.089 282.67 C 373.558 286.299 376.876 289.707 381.556 292.396 C 386.235 295.084 392.037 296.915 398.11 297.62 Z"
        fill="#78c257"/>
    <path
        id="path_23"
        d="M 548.27 304.46 C 554.331 305.26 560.404 304.902 565.599 303.438 C 570.794 301.974 574.844 299.48 577.155 296.32 C 579.467 293.161 579.921 289.498 578.451 285.87 C 576.982 282.241 573.664 278.833 568.984 276.144 C 564.305 273.456 558.503 271.625 552.43 270.92 C 546.369 270.12 540.296 270.478 535.101 271.942 C 529.906 273.406 525.856 275.9 523.545 279.06 C 521.233 282.219 520.779 285.882 522.249 289.51 C 523.718 293.139 527.036 296.547 531.716 299.236 C 536.395 301.924 542.197 303.755 548.27 304.46 Z"
        fill="#78c257"/>
    <path
        id="path_24"
        d="M 247.95 290.79 C 254.011 291.59 260.084 291.232 265.279 289.768 C 270.474 288.304 274.524 285.81 276.835 282.65 C 279.147 279.491 279.601 275.828 278.131 272.2 C 276.662 268.571 273.344 265.163 268.664 262.474 C 263.985 259.786 258.183 257.955 252.11 257.25 C 246.049 256.45 239.976 256.808 234.781 258.272 C 229.586 259.736 225.536 262.23 223.225 265.39 C 220.913 268.549 220.459 272.212 221.929 275.84 C 223.398 279.469 226.716 282.877 231.396 285.566 C 236.075 288.254 241.877 290.085 247.95 290.79 Z"
        fill="#78c257"/>
    <path
        id="path_25"
        d="M 229.56 563.64 C 233.313 568.791 237.849 573.177 242.51 576.165 C 247.171 579.153 251.721 580.591 255.502 580.271 C 259.284 579.95 262.104 577.888 263.556 574.382 C 265.007 570.876 265.016 566.104 263.581 560.757 C 262.147 555.409 259.341 549.758 255.57 544.62 C 251.817 539.469 247.281 535.083 242.62 532.095 C 237.959 529.107 233.409 527.669 229.628 527.989 C 225.846 528.31 223.026 530.372 221.574 533.878 C 220.123 537.384 220.114 542.156 221.549 547.503 C 222.983 552.851 225.789 558.502 229.56 563.64 Z"
        fill="#78c257"/>
    <path
        id="path_26"
        d="M 483.54 554.83 C 486.263 556.909 490.133 557.294 494.582 555.927 C 499.032 554.56 503.835 551.511 508.289 547.227 C 512.742 542.943 516.619 537.643 519.352 532.1 C 522.086 526.558 523.536 521.057 523.49 516.402 C 523.445 511.747 521.906 508.176 519.1 506.21 C 516.377 504.131 512.507 503.746 508.058 505.113 C 503.608 506.48 498.805 509.529 494.351 513.813 C 489.898 518.097 486.021 523.397 483.288 528.94 C 480.554 534.482 479.104 539.983 479.15 544.638 C 479.195 549.293 480.734 552.864 483.54 554.83 Z"
        fill="#78c257"/>
    <path
        id="path_27"
        d="M 618.75 604.04 C 621.473 606.119 625.343 606.504 629.792 605.137 C 634.242 603.77 639.045 600.721 643.499 596.437 C 647.952 592.153 651.829 586.853 654.562 581.31 C 657.296 575.768 658.746 570.267 658.7 565.612 C 658.655 560.957 657.116 557.386 654.31 555.42 C 651.587 553.341 647.717 552.956 643.268 554.323 C 638.818 555.69 634.015 558.739 629.561 563.023 C 625.108 567.307 621.231 572.607 618.498 578.15 C 615.764 583.692 614.314 589.193 614.36 593.848 C 614.405 598.503 615.944 602.074 618.75 604.04 Z"
        fill="#78c257"/>
</svg>
