<svg
    xmlns="http://www.w3.org/2000/svg"
    viewBox="0 0 800 1000"
    id="vector">
    <path
        id="path"
        d="M 740.8 635.42 C 672.53 725.89 491.03 837.18 424.8 876.05 C 417.255 880.482 408.691 882.887 399.942 883.028 C 391.193 883.17 382.554 881.045 374.87 876.86 C 310.68 841.86 140.78 742.98 59.22 634.86 C 57.328 632.343 56.295 629.283 56.273 626.135 C 56.252 622.986 57.243 619.913 59.1 617.37 C 136.68 511.08 218.77 358.48 400.16 358.48 C 582.16 358.48 642.35 497.56 740.43 617.36 C 742.505 619.893 743.671 623.052 743.738 626.326 C 743.805 629.6 742.77 632.804 740.8 635.42 Z"
        fill="#eeeeee"
        fill-opacity="0.5"
        stroke-opacity="0.5"/>
    <path
        id="path_1"
        d="M 704.9 630 L 410.61 821.06 L 410.61 480.21 L 704.9 289.15 L 704.9 630 Z"
        fill="#bdbdbd"/>
    <path
        id="path_2"
        d="M 97.59 630 L 391.88 821.06 L 391.88 480.21 L 97.59 289.15 L 97.59 630 Z"
        fill="#e0e0e0"/>
    <path
        id="path_3"
        d="M 400.14 464.73 L 106.95 273.28 L 400.14 116.97 L 695.53 273.28 L 400.14 464.73 Z"
        fill="#f5f5f5"/>
    <path
        id="path_4"
        d="M 106.95 273.28 L 97.59 289.15 L 391.88 480.21 L 400.14 464.73 L 106.95 273.28 Z"
        fill="#eeeeee"/>
    <path
        id="path_5"
        d="M 695.53 273.28 L 704.9 289.15 L 410.61 480.21 L 400.14 464.73 L 695.53 273.28 Z"
        fill="#e0e0e0"/>
    <path
        id="path_6"
        d="M 391.88 480.21 L 410.61 480.21 L 410.61 821.06 L 391.88 821.06 Z"
        fill="#eeeeee"/>
    <path
        id="path_7"
        d="M 400.14 464.73 L 391.88 480.21 L 410.61 480.21 L 400.14 464.73 Z"
        fill="#f5f5f5"/>
    <path
        id="path_8"
        d="M 530.08 303.65 C 536.141 304.45 542.214 304.092 547.409 302.628 C 552.604 301.164 556.654 298.67 558.965 295.51 C 561.277 292.351 561.731 288.688 560.261 285.06 C 558.792 281.431 555.474 278.023 550.794 275.334 C 546.115 272.646 540.313 270.815 534.24 270.11 C 528.179 269.31 522.106 269.668 516.911 271.132 C 511.716 272.596 507.666 275.09 505.355 278.25 C 503.043 281.409 502.589 285.072 504.059 288.7 C 505.528 292.329 508.846 295.737 513.526 298.426 C 518.205 301.114 524.007 302.945 530.08 303.65 Z"
        fill="#78c257"/>
    <path
        id="path_9"
        d="M 389.68 218.17 C 395.741 218.97 401.814 218.612 407.009 217.148 C 412.204 215.684 416.254 213.19 418.565 210.03 C 420.877 206.871 421.331 203.208 419.861 199.58 C 418.392 195.951 415.074 192.543 410.394 189.854 C 405.715 187.166 399.913 185.335 393.84 184.63 C 387.779 183.83 381.706 184.188 376.511 185.652 C 371.316 187.116 367.266 189.61 364.955 192.77 C 362.643 195.929 362.189 199.592 363.659 203.22 C 365.128 206.849 368.446 210.257 373.126 212.946 C 377.805 215.634 383.607 217.465 389.68 218.17 Z"
        fill="#78c257"/>
    <path
        id="path_10"
        d="M 405.35 377.09 C 411.411 377.89 417.484 377.532 422.679 376.068 C 427.874 374.604 431.924 372.11 434.235 368.95 C 436.547 365.791 437.001 362.128 435.531 358.5 C 434.062 354.871 430.744 351.463 426.064 348.774 C 421.385 346.086 415.583 344.255 409.51 343.55 C 403.449 342.75 397.376 343.108 392.181 344.572 C 386.986 346.036 382.936 348.53 380.625 351.69 C 378.313 354.849 377.859 358.512 379.329 362.14 C 380.798 365.769 384.116 369.177 388.796 371.866 C 393.475 374.554 399.277 376.385 405.35 377.09 Z"
        fill="#78c257"/>
    <path
        id="path_11"
        d="M 264.95 291.6 C 271.011 292.4 277.084 292.042 282.279 290.578 C 287.474 289.114 291.524 286.62 293.835 283.46 C 296.147 280.301 296.601 276.638 295.131 273.01 C 293.662 269.381 290.344 265.973 285.664 263.284 C 280.985 260.596 275.183 258.765 269.11 258.06 C 263.049 257.26 256.976 257.618 251.781 259.082 C 246.586 260.546 242.536 263.04 240.225 266.2 C 237.913 269.359 237.459 273.022 238.929 276.65 C 240.398 280.279 243.716 283.687 248.396 286.376 C 253.075 289.064 258.877 290.895 264.95 291.6 Z"
        fill="#78c257"/>
    <path
        id="path_12"
        d="M 297.17 541.59 C 300.923 546.741 305.459 551.127 310.12 554.115 C 314.781 557.103 319.331 558.541 323.112 558.221 C 326.894 557.9 329.714 555.838 331.166 552.332 C 332.617 548.826 332.626 544.054 331.191 538.707 C 329.757 533.359 326.951 527.708 323.18 522.57 C 319.427 517.419 314.891 513.033 310.23 510.045 C 305.569 507.057 301.019 505.619 297.238 505.939 C 293.456 506.26 290.636 508.322 289.184 511.828 C 287.733 515.334 287.724 520.106 289.159 525.453 C 290.593 530.801 293.399 536.452 297.17 541.59 Z"
        fill="#78c257"/>
    <path
        id="path_13"
        d="M 161.96 590.81 C 165.713 595.961 170.249 600.347 174.91 603.335 C 179.571 606.323 184.121 607.761 187.902 607.441 C 191.684 607.12 194.504 605.058 195.956 601.552 C 197.407 598.046 197.416 593.274 195.981 587.927 C 194.547 582.579 191.741 576.928 187.97 571.79 C 184.217 566.639 179.681 562.253 175.02 559.265 C 170.359 556.277 165.809 554.839 162.028 555.159 C 158.246 555.48 155.426 557.542 153.974 561.048 C 152.523 564.554 152.514 569.326 153.949 574.673 C 155.383 580.021 158.189 585.672 161.96 590.81 Z"
        fill="#78c257"/>
    <path
        id="path_28"
        d="M 551.15 579.45 C 553.873 581.529 557.743 581.914 562.192 580.547 C 566.642 579.18 571.445 576.131 575.899 571.847 C 580.352 567.563 584.229 562.263 586.962 556.72 C 589.696 551.178 591.146 545.677 591.1 541.022 C 591.055 536.367 589.516 532.796 586.71 530.83 C 583.987 528.751 580.117 528.366 575.668 529.733 C 571.218 531.1 566.415 534.149 561.961 538.433 C 557.508 542.717 553.631 548.017 550.898 553.56 C 548.164 559.102 546.714 564.603 546.76 569.258 C 546.805 573.913 548.344 577.484 551.15 579.45 Z"
        fill="#78c257"/>
</svg>
