<svg
    xmlns="http://www.w3.org/2000/svg"
    viewBox="0 0 800 1000"
    id="vector">
    <path
        id="path"
        d="M 740.8 635.42 C 672.53 725.89 491.03 837.18 424.8 876.05 C 417.255 880.482 408.691 882.887 399.942 883.028 C 391.193 883.17 382.554 881.045 374.87 876.86 C 310.68 841.86 140.78 742.98 59.22 634.86 C 57.328 632.343 56.295 629.283 56.273 626.135 C 56.252 622.986 57.243 619.913 59.1 617.37 C 136.68 511.08 218.77 358.48 400.16 358.48 C 582.16 358.48 642.35 497.56 740.43 617.36 C 742.505 619.893 743.671 623.052 743.738 626.326 C 743.805 629.6 742.77 632.804 740.8 635.42 Z"
        fill="#eeeeee"
        fill-opacity="0.5"
        stroke-opacity="0.5"/>
    <path
        id="path_1"
        d="M 704.9 630 L 410.61 821.06 L 410.61 480.21 L 704.9 289.15 L 704.9 630 Z"
        fill="#bdbdbd"/>
    <path
        id="path_2"
        d="M 97.59 630 L 391.88 821.06 L 391.88 480.21 L 97.59 289.15 L 97.59 630 Z"
        fill="#e0e0e0"/>
    <path
        id="path_3"
        d="M 400.14 464.73 L 106.95 273.28 L 400.14 116.97 L 695.53 273.28 L 400.14 464.73 Z"
        fill="#f5f5f5"/>
    <path
        id="path_4"
        d="M 106.95 273.28 L 97.59 289.15 L 391.88 480.21 L 400.14 464.73 L 106.95 273.28 Z"
        fill="#eeeeee"/>
    <path
        id="path_5"
        d="M 695.53 273.28 L 704.9 289.15 L 410.61 480.21 L 400.14 464.73 L 695.53 273.28 Z"
        fill="#e0e0e0"/>
    <path
        id="path_6"
        d="M 391.88 480.21 L 410.61 480.21 L 410.61 821.06 L 391.88 821.06 Z"
        fill="#eeeeee"/>
    <path
        id="path_7"
        d="M 400.14 464.73 L 391.88 480.21 L 410.61 480.21 L 400.14 464.73 Z"
        fill="#f5f5f5"/>
    <path
        id="path_8"
        d="M 326.53 254.89 C 332.591 255.69 338.664 255.332 343.859 253.868 C 349.054 252.404 353.104 249.91 355.415 246.75 C 357.727 243.591 358.181 239.928 356.711 236.3 C 355.242 232.671 351.924 229.263 347.244 226.574 C 342.565 223.886 336.763 222.055 330.69 221.35 C 324.629 220.55 318.556 220.908 313.361 222.372 C 308.166 223.836 304.116 226.33 301.805 229.49 C 299.493 232.649 299.039 236.312 300.509 239.94 C 301.978 243.569 305.296 246.977 309.976 249.666 C 314.655 252.354 320.457 254.185 326.53 254.89 Z"
        fill="#78c257"/>
    <path
        id="path_9"
        d="M 537.57 298.78 C 543.631 299.58 549.704 299.222 554.899 297.758 C 560.094 296.294 564.144 293.8 566.455 290.64 C 568.767 287.481 569.221 283.818 567.751 280.19 C 566.282 276.561 562.964 273.153 558.284 270.464 C 553.605 267.776 547.803 265.945 541.73 265.24 C 535.669 264.44 529.596 264.798 524.401 266.262 C 519.206 267.726 515.156 270.22 512.845 273.38 C 510.533 276.539 510.079 280.202 511.549 283.83 C 513.018 287.459 516.336 290.867 521.016 293.556 C 525.695 296.244 531.497 298.075 537.57 298.78 Z"
        fill="#78c257"/>
    <path
        id="path_10"
        d="M 397.17 213.3 C 403.231 214.1 409.304 213.742 414.499 212.278 C 419.694 210.814 423.744 208.32 426.055 205.16 C 428.367 202.001 428.821 198.338 427.351 194.71 C 425.882 191.081 422.564 187.673 417.884 184.984 C 413.205 182.296 407.403 180.465 401.33 179.76 C 395.269 178.96 389.196 179.318 384.001 180.782 C 378.806 182.246 374.756 184.74 372.445 187.9 C 370.133 191.059 369.679 194.722 371.149 198.35 C 372.618 201.979 375.936 205.387 380.616 208.076 C 385.295 210.764 391.097 212.595 397.17 213.3 Z"
        fill="#78c257"/>
    <path
        id="path_11"
        d="M 396.31 381.95 C 402.371 382.75 408.444 382.392 413.639 380.928 C 418.834 379.464 422.884 376.97 425.195 373.81 C 427.507 370.651 427.961 366.988 426.491 363.36 C 425.022 359.731 421.704 356.323 417.024 353.634 C 412.345 350.946 406.543 349.115 400.47 348.41 C 394.409 347.61 388.336 347.968 383.141 349.432 C 377.946 350.896 373.896 353.39 371.585 356.55 C 369.273 359.709 368.819 363.372 370.289 367 C 371.758 370.629 375.076 374.037 379.756 376.726 C 384.435 379.414 390.237 381.245 396.31 381.95 Z"
        fill="#78c257"/>
    <path
        id="path_12"
        d="M 255.91 296.47 C 261.971 297.27 268.044 296.912 273.239 295.448 C 278.434 293.984 282.484 291.49 284.795 288.33 C 287.107 285.171 287.561 281.508 286.091 277.88 C 284.622 274.251 281.304 270.843 276.624 268.154 C 271.945 265.466 266.143 263.635 260.07 262.93 C 254.009 262.13 247.936 262.488 242.741 263.952 C 237.546 265.416 233.496 267.91 231.185 271.07 C 228.873 274.229 228.419 277.892 229.889 281.52 C 231.358 285.149 234.676 288.557 239.356 291.246 C 244.035 293.934 249.837 295.765 255.91 296.47 Z"
        fill="#78c257"/>
    <path
        id="path_13"
        d="M 466.93 340.37 C 472.991 341.17 479.064 340.812 484.259 339.348 C 489.454 337.884 493.504 335.39 495.815 332.23 C 498.127 329.071 498.581 325.408 497.111 321.78 C 495.642 318.151 492.324 314.743 487.644 312.054 C 482.965 309.366 477.163 307.535 471.09 306.83 C 465.029 306.03 458.956 306.388 453.761 307.852 C 448.566 309.316 444.516 311.81 442.205 314.97 C 439.893 318.129 439.439 321.792 440.909 325.42 C 442.378 329.049 445.696 332.457 450.376 335.146 C 455.055 337.834 460.857 339.665 466.93 340.37 Z"
        fill="#78c257"/>
    <path
        id="path_28"
        d="M 230 563.64 C 233.753 568.791 238.289 573.177 242.95 576.165 C 247.611 579.153 252.161 580.591 255.942 580.271 C 259.724 579.95 262.544 577.888 263.996 574.382 C 265.447 570.876 265.456 566.104 264.021 560.757 C 262.587 555.409 259.781 549.758 256.01 544.62 C 252.257 539.469 247.721 535.083 243.06 532.095 C 238.399 529.107 233.849 527.669 230.068 527.989 C 226.286 528.31 223.466 530.372 222.014 533.878 C 220.563 537.384 220.554 542.156 221.989 547.503 C 223.423 552.851 226.229 558.502 230 563.64 Z"
        fill="#78c257"/>
    <path
        id="path_32"
        d="M 312.02 533.78 C 315.773 538.931 320.309 543.317 324.97 546.305 C 329.631 549.293 334.181 550.731 337.962 550.411 C 341.744 550.09 344.564 548.028 346.016 544.522 C 347.467 541.016 347.476 536.244 346.041 530.897 C 344.607 525.549 341.801 519.898 338.03 514.76 C 334.277 509.609 329.741 505.223 325.08 502.235 C 320.419 499.247 315.869 497.809 312.088 498.129 C 308.306 498.45 305.486 500.512 304.034 504.018 C 302.583 507.524 302.574 512.296 304.009 517.643 C 305.443 522.991 308.249 528.642 312.02 533.78 Z"
        fill="#78c257"/>
    <path
        id="path_33"
        d="M 147.96 593.48 C 151.713 598.631 156.249 603.017 160.91 606.005 C 165.571 608.993 170.121 610.431 173.902 610.111 C 177.684 609.79 180.504 607.728 181.956 604.222 C 183.407 600.716 183.416 595.944 181.981 590.597 C 180.547 585.249 177.741 579.598 173.97 574.46 C 170.217 569.309 165.681 564.923 161.02 561.935 C 156.359 558.947 151.809 557.509 148.028 557.829 C 144.246 558.15 141.426 560.212 139.974 563.718 C 138.523 567.224 138.514 571.996 139.949 577.343 C 141.383 582.691 144.189 588.342 147.96 593.48 Z"
        fill="#78c257"/>
    <path
        id="path_34"
        d="M 483.54 554.83 C 486.263 556.909 490.133 557.294 494.582 555.927 C 499.032 554.56 503.835 551.511 508.289 547.227 C 512.742 542.943 516.619 537.643 519.352 532.1 C 522.086 526.558 523.536 521.057 523.49 516.402 C 523.445 511.747 521.906 508.176 519.1 506.21 C 516.377 504.131 512.507 503.746 508.058 505.113 C 503.608 506.48 498.805 509.529 494.351 513.813 C 489.898 518.097 486.021 523.397 483.288 528.94 C 480.554 534.482 479.104 539.983 479.15 544.638 C 479.195 549.293 480.734 552.864 483.54 554.83 Z"
        fill="#78c257"/>
    <path
        id="path_35"
        d="M 618.75 604.04 C 621.473 606.119 625.343 606.504 629.792 605.137 C 634.242 603.77 639.045 600.721 643.499 596.437 C 647.952 592.153 651.829 586.853 654.562 581.31 C 657.296 575.768 658.746 570.267 658.7 565.612 C 658.655 560.957 657.116 557.386 654.31 555.42 C 651.587 553.341 647.717 552.956 643.268 554.323 C 638.818 555.69 634.015 558.739 629.561 563.023 C 625.108 567.307 621.231 572.607 618.498 578.15 C 615.764 583.692 614.314 589.193 614.36 593.848 C 614.405 598.503 615.944 602.074 618.75 604.04 Z"
        fill="#78c257"/>
</svg>
