<svg
    xmlns="http://www.w3.org/2000/svg"
    viewBox="0 0 800 1000"
    id="vector">
    <path
        id="path"
        d="M 740.8 635.42 C 672.53 725.89 491.03 837.18 424.8 876.05 C 417.255 880.482 408.691 882.887 399.942 883.028 C 391.193 883.17 382.554 881.045 374.87 876.86 C 310.68 841.86 140.78 742.98 59.22 634.86 C 57.328 632.343 56.295 629.283 56.273 626.135 C 56.252 622.986 57.243 619.913 59.1 617.37 C 136.68 511.08 218.77 358.48 400.16 358.48 C 582.16 358.48 642.35 497.56 740.43 617.36 C 742.505 619.893 743.671 623.052 743.738 626.326 C 743.805 629.6 742.77 632.804 740.8 635.42 Z"
        fill="#eeeeee"
        fill-opacity="0.5"
        stroke-opacity="0.5"/>
    <path
        id="path_1"
        d="M 704.9 630 L 410.61 821.06 L 410.61 480.21 L 704.9 289.15 L 704.9 630 Z"
        fill="#bdbdbd"/>
    <path
        id="path_2"
        d="M 97.59 630 L 391.88 821.06 L 391.88 480.21 L 97.59 289.15 L 97.59 630 Z"
        fill="#e0e0e0"/>
    <path
        id="path_3"
        d="M 400.14 464.73 L 106.95 273.28 L 400.14 116.97 L 695.53 273.28 L 400.14 464.73 Z"
        fill="#f5f5f5"/>
    <path
        id="path_4"
        d="M 106.95 273.28 L 97.59 289.15 L 391.88 480.21 L 400.14 464.73 L 106.95 273.28 Z"
        fill="#eeeeee"/>
    <path
        id="path_5"
        d="M 695.53 273.28 L 704.9 289.15 L 410.61 480.21 L 400.14 464.73 L 695.53 273.28 Z"
        fill="#e0e0e0"/>
    <path
        id="path_6"
        d="M 391.88 480.21 L 410.61 480.21 L 410.61 821.06 L 391.88 821.06 Z"
        fill="#eeeeee"/>
    <path
        id="path_7"
        d="M 400.14 464.73 L 391.88 480.21 L 410.61 480.21 L 400.14 464.73 Z"
        fill="#f5f5f5"/>
    <path
        id="path_8"
        d="M 520.85 303.25 C 526.911 304.05 532.984 303.692 538.179 302.228 C 543.374 300.764 547.424 298.27 549.735 295.11 C 552.047 291.951 552.501 288.288 551.031 284.66 C 549.562 281.031 546.244 277.623 541.564 274.934 C 536.885 272.246 531.083 270.415 525.01 269.71 C 518.949 268.91 512.876 269.268 507.681 270.732 C 502.486 272.196 498.436 274.69 496.125 277.85 C 493.813 281.009 493.359 284.672 494.829 288.3 C 496.298 291.929 499.616 295.337 504.296 298.026 C 508.975 300.714 514.777 302.545 520.85 303.25 Z"
        fill="#78c257"/>
    <path
        id="path_9"
        d="M 273.33 291.99 C 279.391 292.79 285.464 292.432 290.659 290.968 C 295.854 289.504 299.904 287.01 302.215 283.85 C 304.527 280.691 304.981 277.028 303.511 273.4 C 302.042 269.771 298.724 266.363 294.044 263.674 C 289.365 260.986 283.563 259.155 277.49 258.45 C 271.429 257.65 265.356 258.008 260.161 259.472 C 254.966 260.936 250.916 263.43 248.605 266.59 C 246.293 269.749 245.839 273.412 247.309 277.04 C 248.778 280.669 252.096 284.077 256.776 286.766 C 261.455 289.454 267.257 291.285 273.33 291.99 Z"
        fill="#78c257"/>
    <path
        id="path_10"
        d="M 229.56 563.64 C 233.313 568.791 237.849 573.177 242.51 576.165 C 247.171 579.153 251.721 580.591 255.502 580.271 C 259.284 579.95 262.104 577.888 263.556 574.382 C 265.007 570.876 265.016 566.104 263.581 560.757 C 262.147 555.409 259.341 549.758 255.57 544.62 C 251.817 539.469 247.281 535.083 242.62 532.095 C 237.959 529.107 233.409 527.669 229.628 527.989 C 225.846 528.31 223.026 530.372 221.574 533.878 C 220.123 537.384 220.114 542.156 221.549 547.503 C 222.983 552.851 225.789 558.502 229.56 563.64 Z"
        fill="#78c257"/>
    <path
        id="path_11"
        d="M 311.58 533.77 C 315.333 538.921 319.869 543.307 324.53 546.295 C 329.191 549.283 333.741 550.721 337.522 550.401 C 341.304 550.08 344.124 548.018 345.576 544.512 C 347.027 541.006 347.036 536.234 345.601 530.887 C 344.167 525.539 341.361 519.888 337.59 514.75 C 333.837 509.599 329.301 505.213 324.64 502.225 C 319.979 499.237 315.429 497.799 311.648 498.119 C 307.866 498.44 305.046 500.502 303.594 504.008 C 302.143 507.514 302.134 512.286 303.569 517.633 C 305.003 522.981 307.809 528.632 311.58 533.77 Z"
        fill="#78c257"/>
    <path
        id="path_12"
        d="M 147.54 593.49 C 151.293 598.641 155.829 603.027 160.49 606.015 C 165.151 609.003 169.701 610.441 173.482 610.121 C 177.264 609.8 180.084 607.738 181.536 604.232 C 182.987 600.726 182.996 595.954 181.561 590.607 C 180.127 585.259 177.321 579.608 173.55 574.47 C 169.797 569.319 165.261 564.933 160.6 561.945 C 155.939 558.957 151.389 557.519 147.608 557.839 C 143.826 558.16 141.006 560.222 139.554 563.728 C 138.103 567.234 138.094 572.006 139.529 577.353 C 140.963 582.701 143.769 588.352 147.54 593.49 Z"
        fill="#78c257"/>
    <path
        id="path_13"
        d="M 551.15 579.45 C 553.873 581.529 557.743 581.914 562.192 580.547 C 566.642 579.18 571.445 576.131 575.899 571.847 C 580.352 567.563 584.229 562.263 586.962 556.72 C 589.696 551.178 591.146 545.677 591.1 541.022 C 591.055 536.367 589.516 532.796 586.71 530.83 C 583.987 528.751 580.117 528.366 575.668 529.733 C 571.218 531.1 566.415 534.149 561.961 538.433 C 557.508 542.717 553.631 548.017 550.898 553.56 C 548.164 559.102 546.714 564.603 546.76 569.258 C 546.805 573.913 548.344 577.484 551.15 579.45 Z"
        fill="#78c257"/>
</svg>
