<svg height="512pt" viewBox="-22 0 512 512" width="512pt" xmlns="http://www.w3.org/2000/svg"><path d="m47.464844 130.273438h219.230468c14.652344 0 26.574219-11.921876 26.574219-26.574219v-11.019531h126.890625c15.1875 0 27.539063-12.355469 27.539063-27.542969 0-15.183594-12.351563-27.539063-27.539063-27.539063h-126.890625v-11.023437c0-14.652344-11.921875-26.574219-26.574219-26.574219h-219.230468c-14.65625 0-26.578125 11.921875-26.578125 26.574219v77.125c0 14.65625 11.921875 26.574219 26.578125 26.574219zm372.695312-77.675782c6.914063 0 12.539063 5.625 12.539063 12.539063 0 6.917969-5.625 12.542969-12.539063 12.542969h-126.890625v-25.082032zm-384.273437-26.023437c0-6.382813 5.191406-11.574219 11.578125-11.574219h219.230468c6.382813 0 11.574219 5.191406 11.574219 11.574219v77.125c0 6.382812-5.191406 11.574219-11.574219 11.574219h-219.230468c-6.382813 0-11.578125-5.191407-11.578125-11.574219zm0 0"/><path d="m436.433594 447.691406h-22.09375v-113.410156c0-16.542969-2.253906-32.566406-6.453125-47.792969 18.585937-4.199219 32.515625-20.832031 32.515625-40.671875 0-22.992187-18.710938-41.703125-41.703125-41.703125-10.921875 0-21.246094 4.277344-28.945313 11.703125-33.027344-37.714844-81.507812-61.578125-135.460937-61.578125-53.949219 0-102.429688 23.859375-135.457031 61.574219-7.6875-7.429688-17.992188-11.699219-28.945313-11.699219-22.996094 0-41.703125 18.710938-41.703125 41.703125 0 19.839844 13.925781 36.472656 32.515625 40.671875-4.199219 15.226563-6.453125 31.25-6.453125 47.792969v35.472656c0 4.144532 3.359375 7.5 7.5 7.5s7.5-3.355468 7.5-7.5v-35.472656c0-91.003906 74.039062-165.042969 165.042969-165.042969 91.007812 0 165.046875 74.039063 165.046875 165.042969v113.410156h-80.109375c-4.144531 0-7.5 3.359375-7.5 7.5 0 4.144532 3.355469 7.5 7.5 7.5h117.203125c9.460937 0 17.15625 7.695313 17.15625 17.15625 0 9.457032-7.695313 17.152344-17.15625 17.152344h-404.28125c-9.457032 0-17.152344-7.695312-17.152344-17.152344 0-9.457031 7.695312-17.152344 17.152344-17.152344h259.074218c4.144532 0 7.5-3.359374 7.5-7.5 0-4.144531-3.355468-7.5-7.5-7.5h-221.976562v-49.941406c0-4.144531-3.359375-7.5-7.5-7.5s-7.5 3.355469-7.5 7.5v49.941406h-22.097656c-17.726563 0-32.152344 14.421876-32.152344 32.152344 0 17.726563 14.425781 32.152344 32.152344 32.152344h404.28125c17.730468 0 32.15625-14.425781 32.15625-32.152344 0-17.730468-14.425782-32.15625-32.15625-32.15625zm-393.246094-201.875c0-14.722656 11.976562-26.703125 26.703125-26.703125 7.472656 0 14.480469 3.101563 19.488281 8.457031-9.992187 13.535157-18.140625 28.507813-24.0625 44.550782-12.550781-2.175782-22.128906-13.136719-22.128906-26.304688zm355.511719-26.703125c14.726562 0 26.703125 11.980469 26.703125 26.703125 0 13.164063-9.578125 24.128906-22.128906 26.304688-5.921876-16.042969-14.070313-31.015625-24.058594-44.546875 5.011718-5.351563 12.03125-8.460938 19.484375-8.460938zm0 0"/><path d="m234.292969 328.273438c3.984375 3.570312 9.242187 5.742187 15 5.742187 12.40625 0 22.5-10.09375 22.5-22.5 0-4.144531-3.355469-7.5-7.5-7.5-4.140625 0-7.5 3.355469-7.5 7.5 0 4.136719-3.363281 7.5-7.5 7.5s-7.5-3.363281-7.5-7.5c0-4.144531-3.355469-7.5-7.5-7.5-4.140625 0-7.5 3.355469-7.5 7.5 0 4.136719-3.363281 7.5-7.5 7.5s-7.5-3.363281-7.5-7.5c0-4.144531-3.355469-7.5-7.5-7.5-4.140625 0-7.5 3.355469-7.5 7.5 0 12.40625 10.09375 22.5 22.5 22.5 5.757812 0 11.019531-2.171875 15-5.742187zm0 0"/><path d="m297.984375 320.785156c4.144531 0 7.5-3.359375 7.5-7.5v-11.355468c0-4.144532-3.355469-7.5-7.5-7.5s-7.5 3.355468-7.5 7.5v11.355468c0 4.140625 3.355469 7.5 7.5 7.5zm0 0"/><path d="m170.605469 320.785156c4.140625 0 7.5-3.359375 7.5-7.5v-11.355468c0-4.144532-3.359375-7.5-7.5-7.5s-7.5 3.355468-7.5 7.5v11.355468c0 4.140625 3.359375 7.5 7.5 7.5zm0 0"/><path d="m284.804688 334.75c0 4.144531 3.359374 7.5 7.5 7.5h11.355468c4.144532 0 7.5-3.355469 7.5-7.5s-3.355468-7.5-7.5-7.5h-11.355468c-4.140626 0-7.5 3.355469-7.5 7.5zm0 0"/><path d="m157.425781 334.75c0 4.144531 3.359375 7.5 7.5 7.5h11.355469c4.144531 0 7.5-3.355469 7.5-7.5s-3.355469-7.5-7.5-7.5h-11.355469c-4.140625 0-7.5 3.355469-7.5 7.5zm0 0"/></svg>