<svg height="512pt" viewBox="-22 0 511 512" width="512pt" xmlns="http://www.w3.org/2000/svg"><path d="m438.738281 245.511719c0 19.460937-15.773437 35.234375-35.234375 35.234375-19.457031 0-35.234375-15.773438-35.234375-35.234375 0-19.460938 15.777344-35.234375 35.234375-35.234375 19.460938 0 35.234375 15.773437 35.234375 35.234375zm0 0" fill="#774839"/><path d="m100.007812 245.511719c0 19.460937-15.773437 35.234375-35.234374 35.234375-19.460938 0-35.234376-15.773438-35.234376-35.234375 0-19.460938 15.773438-35.234375 35.234376-35.234375 19.460937 0 35.234374 15.773437 35.234374 35.234375zm0 0" fill="#774839"/><path d="m234.140625 158.894531c-98.171875 0-177.753906 79.582031-177.753906 177.75v153.296875h355.503906v-153.296875c0-98.167969-79.582031-177.75-177.75-177.75zm0 0" fill="#b2785b"/><path d="m254.894531 160.109375c-6.808593-.792969-13.734375-1.214844-20.753906-1.214844-98.171875 0-177.753906 79.582031-177.753906 177.75v153.296875h41.511719v-153.296875c0-91.144531 68.609374-166.253906 156.996093-176.535156zm0 0" fill="#935b45"/><path d="m425.617188 80.023438h-244.507813v-41.289063h244.503906c11.402344 0 20.644531 9.242187 20.644531 20.644531.003907 11.398438-9.242187 20.644532-20.640624 20.644532zm0 0" fill="#444346"/><path d="m425.617188 59.378906h-244.507813v20.644532h244.507813c11.402343 0 20.644531-9.246094 20.644531-20.644532 0-3.765625-1.027344-7.285156-2.785157-10.324218-3.570312 6.164062-10.222656 10.324218-17.859374 10.324218zm0 0" fill="#222223"/><path d="m181.109375 38.734375h122.199219v41.289063h-122.199219zm0 0" fill="#222223"/><path d="m267.515625 118.753906h-225.84375c-10.855469 0-19.652344-8.796875-19.652344-19.652344v-79.449218c0-10.855469 8.796875-19.652344 19.652344-19.652344h225.847656c10.851563 0 19.652344 8.796875 19.652344 19.652344v79.449218c-.003906 10.855469-8.800781 19.652344-19.65625 19.652344zm0 0" fill="#92d8ff"/><path d="m267.515625 86.476562h-225.84375c-10.855469 0-19.652344-8.796874-19.652344-19.652343v32.277343c0 10.851563 8.796875 19.652344 19.652344 19.652344h225.847656c10.851563 0 19.652344-8.800781 19.652344-19.652344v-32.277343c-.003906 10.855469-8.800781 19.652343-19.65625 19.652343zm0 0" fill="#66d3d0"/><path d="m442.382812 512h-416.484374c-14.027344 0-25.398438-11.371094-25.398438-25.398438 0-14.027343 11.371094-25.394531 25.398438-25.394531h416.484374c14.023438 0 25.394532 11.371094 25.394532 25.394531 0 14.027344-11.371094 25.398438-25.394532 25.398438zm0 0" fill="#d8d7da"/><path d="m54.296875 486.601562c0-14.027343 11.367187-25.394531 25.394531-25.394531h-53.792968c-14.027344 0-25.398438 11.371094-25.398438 25.394531 0 14.027344 11.371094 25.398438 25.398438 25.398438h53.792968c-14.027344 0-25.394531-11.371094-25.394531-25.398438zm0 0" fill="#c6c5ca"/><path d="m78.742188 0h16.140624v118.753906h-16.140624zm0 0" fill="#66d3d0"/><path d="m214.304688 0h16.140624v118.753906h-16.140624zm0 0" fill="#66d3d0"/><g fill="#222223"><path d="m249.59375 336.144531c-5.949219 0-11.371094-2.273437-15.453125-5.996093-4.082031 3.722656-9.507813 5.996093-15.453125 5.996093-12.65625 0-22.953125-10.296875-22.953125-22.953125 0-4.140625 3.355469-7.5 7.5-7.5 4.140625 0 7.5 3.359375 7.5 7.5 0 4.386719 3.566406 7.953125 7.953125 7.953125 4.382812 0 7.953125-3.566406 7.953125-7.953125 0-4.140625 3.355469-7.5 7.5-7.5 4.140625 0 7.5 3.359375 7.5 7.5 0 4.386719 3.566406 7.953125 7.953125 7.953125 4.382812 0 7.949219-3.566406 7.949219-7.953125 0-4.140625 3.359375-7.5 7.5-7.5 4.144531 0 7.5 3.359375 7.5 7.5 0 12.65625-10.296875 22.953125-22.949219 22.953125zm0 0"/><path d="m299.75 322.511719c-4.144531 0-7.5-3.355469-7.5-7.5v-11.695313c0-4.144531 3.355469-7.5 7.5-7.5s7.5 3.355469 7.5 7.5v11.695313c0 4.144531-3.355469 7.5-7.5 7.5zm0 0"/><path d="m168.527344 322.511719c-4.140625 0-7.5-3.355469-7.5-7.5v-11.695313c0-4.144531 3.359375-7.5 7.5-7.5 4.144531 0 7.5 3.355469 7.5 7.5v11.695313c0 4.144531-3.355469 7.5-7.5 7.5zm0 0"/></g><path d="m305.601562 344.628906h-11.699218c-4.144532 0-7.5-3.359375-7.5-7.5 0-4.144531 3.355468-7.5 7.5-7.5h11.699218c4.140626 0 7.5 3.355469 7.5 7.5 0 4.140625-3.359374 7.5-7.5 7.5zm0 0" fill="#eaeaea"/><path d="m174.375 344.628906h-11.695312c-4.144532 0-7.5-3.359375-7.5-7.5 0-4.144531 3.355468-7.5 7.5-7.5h11.699218c4.140625 0 7.5 3.355469 7.5 7.5 0 4.140625-3.359375 7.5-7.503906 7.5zm0 0" fill="#eaeaea"/></svg>