<?xml version="1.0" encoding="utf-8"?>
<!-- Generator: Adobe Illustrator 25.1.0, SVG Export Plug-In . SVG Version: 6.00 Build 0)  -->
<svg version="1.1" id="Calque_1" xmlns="http://www.w3.org/2000/svg" xmlns:xlink="http://www.w3.org/1999/xlink" x="0px" y="0px"
	 viewBox="0 0 16 15" style="enable-background:new 0 0 16 15;" xml:space="preserve">
<desc>Created with Sketch.</desc>
<g>
	<g transform="translate(-632.000000, -125.000000)">
		<path d="M641,136.5c0.6,0,1,0.4,1,1s-0.4,1-1,1l0,0h-2c-0.6,0-1-0.4-1-1s0.4-1,1-1l0,0H641z M644,131.5c0.6,0,1,0.4,1,1
			s-0.4,1-1,1l0,0h-8c-0.6,0-1-0.4-1-1s0.4-1,1-1l0,0H644z M647,126.5c0.6,0,1,0.4,1,1c0,0.6-0.4,1-1,1l0,0h-14c-0.6,0-1-0.4-1-1
			c0-0.6,0.4-1,1-1l0,0H647z"/>
	</g>
</g>
</svg>
