<?xml version="1.0" encoding="utf-8"?>
<!-- Generator: Adobe Illustrator 25.1.0, SVG Export Plug-In . SVG Version: 6.00 Build 0)  -->
<svg version="1.1" id="Calque_1" xmlns="http://www.w3.org/2000/svg" xmlns:xlink="http://www.w3.org/1999/xlink" x="0px" y="0px"
	 viewBox="0 0 700 700" style="enable-background:new 0 0 700 700;" xml:space="preserve">
<g>
	<path d="M477.2,75.2c-2.8-28.1-31.4-61.4-68.3-65.7c-15.5-1.8-25.3,1.4-32.2,3.8c-3.9,1.4-7,2.3-9.8,2.2c-1.8-0.1-4.5-0.3-7.7-0.7
		c-17-1.7-48.7-5.1-81.2,7.3c-40.1,15.1-53.7,49-54.2,50.4c-0.2,0.3-0.5,1.7-0.5,2.1c-0.5,4.8-9.9,118.3,0,183
		c3.9,25.4,11.9,58.2,20.3,93c13.3,55,27.1,111.8,27.1,147.8c0,29.6-4.1,61.6-8,92.4c-3,23-6,46.9-7.4,69.8
		c-0.5,8,2.3,15.5,7.8,21.3c5.5,5.9,13.1,9,21.3,9h130.6c8,0,15.8-3.1,21.3-8.9c5.5-5.8,8.3-13.3,7.8-21.5
		c-1.4-22.8-4.5-46.7-7.4-69.8c-3.9-30.8-8-62.6-8-92.3c0-35.9,13.8-92.8,27.1-147.8c8.5-34.7,16.9-67.6,20.8-93
		C486.5,192.9,477.5,80,477.2,75.2L477.2,75.2z M283.2,37.1c29.2-11,58.5-8.3,74.2-6.7c3.7,0.5,6.7,0.5,8.7,0.6
		c5.7,0.1,10.4-1.6,15-3.1c6.4-2.2,13-3.8,25.1-2.3c25.6,3,45.6,21.1,52.7,43.8H243.6C250,61.7,262.4,44.9,283.2,37.1L283.2,37.1z
		 M318.6,539.6c-0.5,3.8-3.8,6.6-7.5,6.6c-0.3,0-0.7,0-1-0.1c-4.2-0.6-7.1-4.4-6.5-8.5c3.3-24.1,2.4-57.7-2-81.6
		c-0.8-4.1,2-8.1,6.1-8.8c4.1-0.8,8.1,2,8.8,6.1C321.2,478.5,322,514,318.6,539.6L318.6,539.6z M270.4,129.9
		c-1.7,35.4-3.2,87.5,2,121.4c3.6,23.5,11.3,55.4,19.5,89.1c5.4,22.2,10.9,45,15.7,66.8c0.9,4.1-1.7,8.1-5.8,9
		c-0.5,0.1-1.1,0.2-1.6,0.2c-3.5,0-6.6-2.4-7.4-6c-4.7-21.6-10.2-44.3-15.5-66.2c-8.3-34.3-16.2-66.5-19.8-90.7
		c-5.3-35-4-87.7-2.2-123.7h-20.1c0.8-20.8,2-37.9,2.7-45.5h223.9c0.7,7.6,1.8,24.7,2.7,45.5L270.4,129.9z"/>
</g>
</svg>
