<?xml version="1.0" encoding="utf-8"?>
<!-- Generator: Adobe Illustrator 25.1.0, SVG Export Plug-In . SVG Version: 6.00 Build 0)  -->
<svg version="1.1" id="Calque_1" xmlns="http://www.w3.org/2000/svg" xmlns:xlink="http://www.w3.org/1999/xlink" x="0px" y="0px"
	 viewBox="0 0 700 700" style="enable-background:new 0 0 700 700;" xml:space="preserve">
<style type="text/css">
	.st0{fill:#555555;}
</style>
<symbol  id="c" viewBox="-8.2 -10.8 16.4 21.7">
	<path d="M3.3-2.6v-8.2h4.9v21.3H3.3V8.2c-0.7,0.9-1.4,1.6-2.2,2c-0.8,0.4-1.8,0.6-2.8,0.6c-1.9,0-3.4-0.8-4.6-2.2
		c-1.2-1.5-1.8-3.4-1.8-5.8c0-2.4,0.6-4.3,1.8-5.8c1.2-1.5,2.8-2.2,4.6-2.2c1.1,0,2,0.2,2.8,0.6C1.9-4.2,2.6-3.5,3.3-2.6L3.3-2.6z
		 M0.1,7.3c1,0,1.8-0.4,2.4-1.1C3,5.4,3.3,4.3,3.3,2.8c0-1.5-0.3-2.6-0.8-3.3C1.9-1.3,1.1-1.7,0.1-1.7c-1,0-1.8,0.4-2.4,1.2
		c-0.6,0.8-0.8,1.9-0.8,3.3c0,1.5,0.3,2.6,0.8,3.3C-1.8,6.9-1,7.3,0.1,7.3z"/>
</symbol>
<g>
	<path class="st0" d="M465.4,103.9c1.2,4.7,6,8.5,10.9,8.5H570c17,0,30.8,13.8,30.8,30.8c0,14.1-9.4,25.9-22.3,29.6l-16.1,442.3
		c-1.3,36-31.2,64.9-67.3,64.9H204.9c-36,0-66-28.9-67.3-64.9l-16.1-442.3c-12.9-3.7-22.3-15.5-22.3-29.6c0-17,13.8-30.8,30.8-30.8
		h93.7c4.8,0,9.7-3.9,10.9-8.5l6.6-26.4c8.1-32.6,40-57.5,73.6-57.5h70.5c33.6,0,65.4,24.9,73.6,57.5L465.4,103.9z M328,253.2v299.2
		c0,12.1,9.9,22,22,22s22-9.9,22-22V253.2c0-12.1-9.9-22-22-22S328,241.1,328,253.2z M226.8,253.8l8.8,299.2
		c0.4,12.1,10.5,21.7,22.6,21.3c12.1-0.4,21.7-10.5,21.3-22.6l-8.8-299.2c-0.4-12.1-10.5-21.7-22.6-21.3
		C236,231.6,226.4,241.7,226.8,253.8z M429.2,252.6l-8.8,299.2c-0.4,12.1,9.2,22.3,21.3,22.6c12.1,0.4,22.3-9.2,22.6-21.3l8.8-299.2
		c0.4-12.1-9.2-22.3-21.3-22.6C439.7,230.9,429.6,240.4,429.2,252.6z M300.3,112.4h99.4c2.4,0,3.9-1.9,3.3-4.2l-3.9-15.7
		c-1.3-5.2-8.5-10.8-13.8-10.8h-70.5c-5.3,0-12.5,5.7-13.8,10.8l-3.9,15.7C296.4,110.6,297.9,112.4,300.3,112.4L300.3,112.4z"/>
</g>
<g>
	<defs>
		<rect id="SVGID_1_" x="442.7" y="644" width="700" height="700"/>
	</defs>
	<clipPath id="SVGID_2_">
		<use xlink:href="#SVGID_1_"  style="overflow:visible;"/>
	</clipPath>
	<g style="clip-path:url(#SVGID_2_);">
		
			<use xlink:href="#c"  width="16.4" height="21.7" x="-8.2" y="-10.8" transform="matrix(1 0 0 1 452.1449 633.5547)" style="overflow:visible;"/>
	</g>
</g>
</svg>
