<?xml version="1.0" encoding="utf-8"?>
<!-- Generator: Adobe Illustrator 25.1.0, SVG Export Plug-In . SVG Version: 6.00 Build 0)  -->
<svg version="1.1" id="Calque_1" xmlns="http://www.w3.org/2000/svg" xmlns:xlink="http://www.w3.org/1999/xlink" x="0px" y="0px"
	 viewBox="0 0 700 700" style="enable-background:new 0 0 700 700;" xml:space="preserve">
<style type="text/css">
	.st0{fill:#FFB600;}
</style>
<g>
	<path class="st0" d="M119.3,633.8h420.2c15.6,0,30.7-6.2,41.7-17.3c11.1-11.1,17.3-26.1,17.3-41.7V352.4c0-7.4-4-14.3-10.4-18
		c-6.4-3.7-14.4-3.7-20.8,0c-6.4,3.7-10.4,10.6-10.4,18v222.3c0,4.6-1.8,9-5.1,12.3c-3.3,3.3-7.7,5.1-12.3,5.1H119.3
		c-4.6,0-9-1.8-12.3-5.1c-3.3-3.3-5.1-7.7-5.1-12.3V175.3c0-4.6,1.8-9,5.1-12.3c3.3-3.3,7.7-5.1,12.3-5.1h232.6
		c7.4,0,14.3-4,18-10.4c3.7-6.4,3.7-14.4,0-20.8c-3.7-6.4-10.6-10.4-18-10.4H119.3c-15.6,0-30.7,6.2-41.7,17.3
		c-11.1,11.1-17.3,26.1-17.3,41.7v399.5c0,15.6,6.2,30.7,17.3,41.7C88.6,627.6,103.6,633.8,119.3,633.8L119.3,633.8z"/>
	<path class="st0" d="M197.3,418.8l-14,69.7h0c-1.7,8.5,0.5,17.3,6,24c5.5,6.7,13.7,10.6,22.3,10.6c1.9,0,3.8-0.2,5.7-0.6l69.8-14h0
		c13.4-2.7,25.7-9.2,35.4-18.9l296.8-296.9c18-19.2,24.7-46.3,17.6-71.7C629.9,95.8,610.2,76,584.8,69c-25.3-7.1-52.5-0.4-71.7,17.6
		L216.2,383.4C206.6,393.1,200,405.4,197.3,418.8L197.3,418.8z M238.2,426.9L238.2,426.9c1.1-5.3,3.7-10.2,7.5-14.1L542.6,116
		c8.5-8.4,20.8-11.6,32.3-8.5c11.5,3.1,20.5,12.1,23.6,23.6c3.1,11.5-0.1,23.8-8.5,32.3L293.1,460.2c-3.8,3.8-8.7,6.5-14.1,7.5
		L228,478L238.2,426.9z"/>
</g>
</svg>
