<?xml version="1.0" encoding="utf-8"?>
<!-- Generator: Adobe Illustrator 25.1.0, SVG Export Plug-In . SVG Version: 6.00 Build 0)  -->
<svg version="1.1" id="Calque_1" xmlns="http://www.w3.org/2000/svg" xmlns:xlink="http://www.w3.org/1999/xlink" x="0px" y="0px"
	 viewBox="0 0 700 700" style="enable-background:new 0 0 700 700;" xml:space="preserve">
<style type="text/css">
	.st0{fill:#1987F4;}
</style>
<g>
	<path class="st0" d="M612.7,565l-39.2-86.2c23.5-40.3,35.8-85.7,35.8-132.2C609.3,202.2,491.7,84,346.7,84S84.1,201.6,84.1,346.6
		s117.6,262.6,262.6,262.6c46.5,0,92.4-12.3,132.2-35.8l86.2,39.2c5,2.2,10.1,3.4,15.1,3.4c9.5,0,18.5-3.4,25.2-10.6
		C616.1,594.7,618.9,579,612.7,565L612.7,565z M485.6,532.6c-2.8-1.1-5.6-1.7-8.4-1.7c-3.9,0-7.3,1.1-10.6,3.4
		c-35.8,23-77.3,35.3-119.8,35.3c-122.6,0-222.3-99.7-222.3-222.3s99.7-223.4,222.3-223.4S569,223.4,569,346.1
		c0,42.6-12.3,84-35.3,119.8c-3.9,5.6-3.9,12.9-1.1,19l39.2,85.7L485.6,532.6z"/>
	<path class="st0" d="M457,300.7l-67.8-9.5c-1.7,0-2.8-1.1-3.4-2.8L355,225.7c-3.4-6.2-11.8-6.2-15.1,0l-30.2,61.6
		c-0.6,1.7-2.2,2.2-3.4,2.8l-70,9.5c-6.7,1.1-9.5,9.5-4.5,14.6l49.3,48.2c1.1,1.1,1.7,2.8,1.1,4.5l-11.8,68.9
		c-1.1,6.7,6.2,12.3,12.3,9l60.5-31.9c1.1-0.6,2.8-0.6,4.5,0l61.6,32.5c6.2,3.4,13.4-2.2,12.3-9l-11.8-67.8c0-1.7,0-3.4,1.1-4.5
		l49.8-48.7C466.5,310.2,463.7,301.8,457,300.7L457,300.7z"/>
</g>
</svg>
